<svg xmlns:xlink="http://www.w3.org/1999/xlink" width="109" height="59" viewBox="0 0 109 59" fill="none" xmlns="http://www.w3.org/2000/svg">
  <g clip-path="url(#clip0_2331_38776)">
    <path d="M47.3515 0.0505145C47.3012 0.100803 43.429 0.167854 38.7354 0.184617L30.2031 0.218142L30.3205 3.50365C30.4546 7.25851 30.5887 10.6949 30.6725 12.1532C30.706 12.7064 30.7395 13.2931 30.7395 13.444C30.7563 13.8295 31.058 13.8463 38.2325 14.2486C51.2907 14.9694 57.845 14.9862 69.3107 14.3324C71.6575 14.1983 74.4233 14.0307 75.4291 13.9804C77.7591 13.8463 78.1782 13.8128 78.262 13.7289C78.3291 13.6451 78.7146 4.44236 78.7649 1.96147L78.7817 0.335482L77.4406 0.251668C75.1944 0.151091 47.4353 -0.0500621 47.3515 0.0505145Z" fill="black"></path>
    <path d="M18.4369 0.45353C14.7994 0.537344 7.28964 0.8726 5.69718 1.0067C3.31686 1.24138 2.34462 1.57664 1.38914 2.53212C0.215746 3.70551 0.0313557 4.49336 0.11517 8.2147C0.148695 9.9245 0.232509 11.2823 0.333086 11.3829C0.433662 11.4667 1.18799 11.584 2.00936 11.6511C2.8475 11.7014 4.30586 11.8187 5.27811 11.9025C7.3064 12.0869 7.77576 12.1204 13.4081 12.573C15.7213 12.7406 18.3531 12.9418 19.275 12.9921C20.197 13.0424 21.8565 13.1597 22.9628 13.2435C24.0692 13.3441 25.6114 13.4447 26.3992 13.5117C27.1871 13.562 28.109 13.6291 28.461 13.6626L29.0813 13.7129V12.9418C29.0813 12.506 28.9639 9.80716 28.8298 6.95749C28.6957 4.09105 28.5784 1.44253 28.5784 1.04023V0.319428L24.3541 0.369716C22.0241 0.403242 19.3588 0.436767 18.4369 0.45353Z" fill="black"></path>
    <path d="M80.223 6.13671C80.1057 9.35517 79.9884 12.3222 79.9548 12.7245C79.9213 13.1436 79.9213 13.5123 79.9548 13.5794C79.9884 13.6297 80.7092 13.6297 81.5808 13.5626C82.4357 13.4956 83.9276 13.395 84.8999 13.3447C85.8721 13.2777 87.0455 13.1938 87.4981 13.1603C87.9674 13.1268 88.9397 13.0597 89.6772 13.0095C91.672 12.8754 101.596 12.0875 105.434 11.769L108.787 11.484L108.887 10.4783C109.089 8.44998 108.938 4.82922 108.619 3.95755C108.234 2.88473 107.295 1.96278 106.155 1.54371C104.546 0.940251 98.9303 0.604995 86.8946 0.403842L80.441 0.286502L80.223 6.13671Z" fill="black"></path>
    <path d="M0.500152 13.7806C0.952747 16.7141 1.67355 18.7256 2.76313 20.1672C4.77466 22.8157 8.39542 24.5926 15.2346 26.2353C19.7774 27.3249 30.2206 29.37 30.3211 29.1856C30.3547 29.1353 30.2541 27.4926 30.0865 25.5648C29.9188 23.6203 29.6506 20.536 29.4998 18.6921C29.3489 16.8482 29.2148 15.3395 29.198 15.3228C29.1813 15.306 26.7507 15.1384 23.8004 14.9372C20.8502 14.7361 18.0675 14.5349 17.5982 14.5014C17.1456 14.4679 16.1901 14.3841 15.5028 14.3338C14.8156 14.2835 13.8266 14.2164 13.3237 14.1661C12.8208 14.1158 11.9156 14.0488 11.3121 13.9985C6.28331 13.6297 1.40534 13.2274 0.952747 13.1436L0.382812 13.0598L0.500152 13.7806Z" fill="black"></path>
    <path d="M104.933 13.4108C103.089 13.5784 100.91 13.7628 100.072 13.8299C99.2504 13.8802 98.2614 13.964 97.8926 13.9975C97.5238 14.031 96.5851 14.0981 95.7973 14.1651C95.0094 14.2154 94.0036 14.2992 93.5343 14.3328C92.495 14.4333 91.791 14.4836 85.2367 14.9362C82.3367 15.1374 79.9229 15.3218 79.9061 15.3553C79.8391 15.4056 78.6992 28.0279 78.6992 28.7655V29.2852L81.683 28.7487C83.3257 28.447 86.5442 27.81 88.8407 27.3239C98.4961 25.3124 102.301 23.9378 104.95 21.5575C106.894 19.7974 107.716 18.1882 108.353 14.8692C108.638 13.3605 108.638 13.042 108.386 13.0923C108.336 13.1091 106.777 13.2599 104.933 13.4108Z" fill="black"></path>
    <path d="M30.9756 16.9641C31.1097 19.0762 31.9143 28.4466 32.0149 29.1004L32.0987 29.6032L34.4119 29.9888C38.0998 30.5922 44.1679 31.4639 47.5204 31.8662C51.5435 32.3523 57.159 32.3859 60.8469 31.9668C66.4121 31.313 76.6542 29.7541 76.8888 29.5194C76.9391 29.4691 77.0397 28.9998 77.09 28.4969C77.1906 27.5079 77.1906 27.4744 77.6935 21.3727C77.8778 19.16 78.079 16.9138 78.1293 16.3606L78.2299 15.3884L76.4195 15.5057C75.4137 15.5728 74.2571 15.6398 73.838 15.6734C73.4189 15.7069 72.1114 15.7739 70.9045 15.841C69.7144 15.908 68.4404 15.9751 68.0884 16.0086C63.5289 16.4277 46.7158 16.4277 40.8991 16.0086C40.4465 15.9751 39.1893 15.908 38.1333 15.841C37.0772 15.7907 35.753 15.7069 35.1998 15.6734C34.6466 15.6398 33.4397 15.556 32.5345 15.5057L30.875 15.3884L30.9756 16.9641Z" fill="black"></path>
    <path d="M1.356 43.1305C0.0820312 43.8513 0.0820312 43.9016 0.0820312 50.6234C0.0820312 57.3453 0.0820312 57.3956 1.356 58.1164L2.00975 58.502H11.3634H20.7003V53.8922V49.2824L13.9616 49.3159L7.20621 49.3662V50.6234V51.8807L12.5368 51.9309L17.8506 51.9645V53.8922V55.8199H10.3911H2.9317V50.6234C2.9317 47.757 2.98199 45.427 3.06581 45.427C3.13286 45.427 7.10564 45.4102 11.8998 45.3767L20.6164 45.3432L20.6667 44.0357L20.717 42.7449H11.3634H2.00975L1.356 43.1305Z" fill="black"></path>
    <path d="M25.3945 49.6688C25.3945 57.4802 25.3778 57.3964 26.6853 58.1172C27.3558 58.5028 27.3558 58.5028 36.3909 58.5028L45.4261 58.5195V57.212V55.9045L36.8435 55.8542L28.2442 55.8207V53.893V51.9653L36.5921 51.9318L44.9232 51.8815V50.6243V49.3671L36.5753 49.3168L28.2275 49.2832L28.2777 47.3388L28.328 45.411L36.877 45.3775L45.4261 45.344L45.4764 44.0365L45.5266 42.7458H35.4522H25.3945V49.6688Z" fill="black"></path>
    <path d="M49.7339 49.8188C49.7842 56.6078 49.8009 56.9263 50.1194 57.3621C50.3038 57.6135 50.7229 57.9655 51.0581 58.1499C51.6616 58.502 51.8795 58.502 60.747 58.502H69.8157V57.1609V55.8199H61.1829H52.55V53.8922V51.9645L60.8979 51.9309L69.229 51.8807L69.2793 50.5732L69.3296 49.2824H60.9314H52.5333L52.5836 47.3547L52.6338 45.4102L61.1829 45.3767L69.7319 45.3432L69.7822 44.0357L69.8325 42.7449H59.758H49.6836L49.7339 49.8188Z" fill="black"></path>
    <path d="M74.1719 49.7183C74.1719 56.5239 74.1886 56.7251 74.5239 57.2783C74.725 57.58 75.1609 57.9823 75.5297 58.1667C76.1331 58.4852 76.5354 58.502 84.0619 58.502H91.9404V57.1609V55.8199H84.481H77.0215V49.2824V42.7449H75.5967H74.1719V49.7183Z" fill="black"></path>
    <path d="M91.4878 47.5736L96.2988 52.3845V55.4185C96.2988 57.0781 96.3323 58.4861 96.3658 58.5197C96.3993 58.5532 97.0531 58.5699 97.7906 58.5364L99.1484 58.4694V55.5191V52.5521L104.043 47.6574L108.955 42.7459H107.111H105.267L101.546 46.4672L97.8074 50.2053L94.0693 46.4672L90.348 42.7459H88.5041H86.6602L91.4878 47.5736Z" fill="black"></path>
  </g>
  <defs>
    <clipPath id="clip0_2331_38776">
      <rect width="109" height="58.5859" fill="white"></rect>
    </clipPath>
  </defs>
</svg>