<?xml version="1.0" encoding="UTF-8" standalone="no"?>
<!-- Generator: Adobe Illustrator 15.0.0, SVG Export Plug-In . SVG Version: 6.00 Build 0)  -->

<svg
   xmlns:dc="http://purl.org/dc/elements/1.1/"
   xmlns:cc="http://creativecommons.org/ns#"
   xmlns:rdf="http://www.w3.org/1999/02/22-rdf-syntax-ns#"
   xmlns:svg="http://www.w3.org/2000/svg"
   xmlns="http://www.w3.org/2000/svg"
   xmlns:sodipodi="http://sodipodi.sourceforge.net/DTD/sodipodi-0.dtd"
   xmlns:inkscape="http://www.inkscape.org/namespaces/inkscape"
   version="1.2"
   id="Layer_1"
   x="0px"
   y="0px"
   width="285.74158"
   height="51.199001"
   viewBox="0 0 285.74158 51.199001"
   xml:space="preserve"
   inkscape:version="0.48.5 r10040"
   sodipodi:docname="Hisense_Arena_logo.svg"><metadata
   id="metadata35"><rdf:RDF><cc:Work
       rdf:about=""><dc:format>image/svg+xml</dc:format><dc:type
         rdf:resource="http://purl.org/dc/dcmitype/StillImage" /></cc:Work></rdf:RDF></metadata><defs
   id="defs33" /><sodipodi:namedview
   pagecolor="#ffffff"
   bordercolor="#666666"
   borderopacity="1"
   objecttolerance="10"
   gridtolerance="10"
   guidetolerance="10"
   inkscape:pageopacity="0"
   inkscape:pageshadow="2"
   inkscape:window-width="1235"
   inkscape:window-height="698"
   id="namedview31"
   showgrid="false"
   fit-margin-top="0"
   fit-margin-left="0"
   fit-margin-right="0"
   fit-margin-bottom="0"
   inkscape:zoom="1"
   inkscape:cx="142.8705"
   inkscape:cy="3.7065"
   inkscape:window-x="202"
   inkscape:window-y="74"
   inkscape:window-maximized="0"
   inkscape:current-layer="Layer_1" />
<polygon
   points="3.084,17.464 0,50.282 16.697,50.282 18.575,30.354 34.209,30.354 32.327,50.282 49.021,50.282 53.765,0.001 37.067,0.001 35.425,17.465 20.345,17.465 20.345,17.464 "
   id="polygon3"
   style="fill:#008f78" />
<polygon
   points="19.99,15.369 21.439,0 4.741,0 3.29,15.369 "
   id="polygon5"
   style="fill:#f08b00" />
<polygon
   points="57.326,11.935 53.88,50.282 68.909,50.282 72.352,11.935 "
   id="polygon7"
   style="fill:#008f78" />
<polygon
   points="72.728,9.789 73.651,0 58.623,0 57.7,9.789 "
   id="polygon9"
   style="fill:#008f78" />
<path
   d="m 94.174,20.562999 c 1.218,0 2.39,0.35 3.239,1.057 0.925,0.628 1.521,1.546 1.486,2.749 h 13.663 c 0.501,-9.369 -9.535,-11.554 -18.04,-11.554 -7.889,0 -18.817,2.396 -19.69,11.625 -0.59,6.268 3.721,9.647 15.01,11.475 6.875,1.125 8.106,1.763 7.909,3.873 -0.201,2.115 -3.378,2.823 -5.351,2.823 -1.824,0 -3.223,-0.424 -3.92,-1.058 -1.056,-0.914 -1.563,-1.974 -1.517,-3.237 H 72.617 c -0.663,9.432 9.178,12.883 18.439,12.883 9.565,0 20.297,-2.74 21.249,-12.883 0.565,-5.991 -3.574,-8.735 -8.444,-10.214 -4.866,-1.552 -10.525,-1.83 -12.937,-2.826 -0.805,-0.341 -1.671,-0.835 -1.569,-1.893 0.223,-2.396 2.693,-2.82 4.819,-2.82"
   id="path11"
   inkscape:connector-curvature="0"
   style="fill:#008f78" />
<path
   d="m 128.314,27.886999 c 1.058,-3.948 3.842,-6.129 8.316,-6.129 3.877,0 6.352,2.751 6.028,6.129 h -14.344 z m 7.797,-15.071 c -12.449,0 -21.615,8.661 -22.613,19.296 -1.148,12.187 7.689,19.087 20.28,19.087 8.96,0 17.58,-3.663 21.362,-11.552 h -14.045 c -1.381,1.761 -4.115,2.604 -6.546,2.604 -4.704,0 -7.005,-2.952 -6.993,-7.108 h 28.838 c 1.346,-14.227 -4.649,-22.327 -20.283,-22.327"
   id="path13"
   inkscape:connector-curvature="0"
   style="fill:#008f78" />
<path
   d="m 188.48,12.815999 c -5.993,0 -10.199,1.899 -13.352,5.564 h -0.151 l 0.433,-4.646 h -14.493 l -3.447,36.548 h 15.03 l 1.82,-19.294 c 0.548,-5.85 4.074,-7.049 6.656,-7.049 4.4,0 4.652,2.96 4.26,7.187 l -1.812,19.156 h 15.03 l 2.358,-25.068 c 0.793,-8.385 -5.283,-12.398 -12.332,-12.398"
   id="path15"
   inkscape:connector-curvature="0"
   style="fill:#008f78" />
<path
   d="m 223.342,20.562999 c 1.209,0 2.394,0.35 3.239,1.057 0.925,0.628 1.524,1.546 1.483,2.749 h 13.666 c 0.5,-9.369 -9.546,-11.554 -18.041,-11.554 -7.889,0 -18.822,2.396 -19.69,11.625 -0.589,6.268 3.721,9.647 15.009,11.475 6.879,1.125 8.107,1.763 7.908,3.873 -0.201,2.115 -3.377,2.823 -5.351,2.823 -1.822,0 -3.222,-0.424 -3.925,-1.058 -1.049,-0.914 -1.557,-1.974 -1.514,-3.237 H 201.78 c -0.659,9.432 9.188,12.883 18.442,12.883 9.566,0 20.295,-2.74 21.253,-12.883 0.561,-5.991 -3.579,-8.735 -8.447,-10.214 -4.866,-1.552 -10.53,-1.83 -12.937,-2.826 -0.806,-0.341 -1.674,-0.835 -1.572,-1.893 0.223,-2.396 2.694,-2.82 4.823,-2.82"
   id="path17"
   inkscape:connector-curvature="0"
   style="fill:#008f78" />
<path
   d="m 257.482,27.886999 c 1.05,-3.948 3.844,-6.129 8.316,-6.129 3.873,0 6.348,2.751 6.025,6.129 h -14.341 z m 7.795,-15.071 c -12.447,0 -21.61,8.661 -22.609,19.296 -1.15,12.187 7.684,19.087 20.283,19.087 8.957,0 17.572,-3.663 21.349,-11.552 h -14.034 c -1.387,1.761 -4.114,2.604 -6.546,2.604 -4.708,0 -7.011,-2.952 -6.993,-7.108 h 28.832 c 1.342,-14.227 -4.644,-22.327 -20.282,-22.327"
   id="path19"
   inkscape:connector-curvature="0"
   style="fill:#008f78" />





</svg>