<?xml version="1.0" encoding="UTF-8" standalone="no"?>
<svg
   xmlns:dc="http://purl.org/dc/elements/1.1/"
   xmlns:cc="http://creativecommons.org/ns#"
   xmlns:rdf="http://www.w3.org/1999/02/22-rdf-syntax-ns#"
   xmlns:svg="http://www.w3.org/2000/svg"
   xmlns="http://www.w3.org/2000/svg"
   viewBox="0 0 511.44 182.46667"
   height="182.46667"
   width="511.44"
   xml:space="preserve"
   id="svg2"
   version="1.1"><metadata
     id="metadata8"><rdf:RDF><cc:Work
         rdf:about=""><dc:format>image/svg+xml</dc:format><dc:type
           rdf:resource="http://purl.org/dc/dcmitype/StillImage" /></cc:Work></rdf:RDF></metadata><defs
     id="defs6" /><g
     transform="matrix(1.3333333,0,0,-1.3333333,0,182.46667)"
     id="g10"><g
       transform="scale(0.1)"
       id="g12"><path
         id="path14"
         style="fill:#ffffff;fill-opacity:1;fill-rule:nonzero;stroke:none"
         d="M 737.605,1368.48 C 307.816,1368.62 0,1095.36 0,701.105 0,249.621 361.684,0.0195313 778.633,0 H 3085.4 c 426.05,-0.179688 751.12,304.43 750.36,697.711 -0.64,324.579 -249.79,670.589 -722.87,670.429 l -2375.285,0.34" /><path
         id="path16"
         style="fill:#ed1c24;fill-opacity:1;fill-rule:nonzero;stroke:none"
         d="M 649.07,764.816 607.5,611.398 c -2.449,-9.453 -9.359,-22.937 6.813,-33.132 l -2.399,-21.25 c -56.238,5.285 -118.254,7.625 -146.949,0.925 l -37.5,4.446 134.805,480.183 c 3.859,14.68 6.812,26.53 5.652,40.99 -0.813,3.78 -6.121,9.73 -9.266,11.14 l 2.688,18.7 c 27.84,-2.38 86.66,-10.57 140.644,-0.45 l 44.145,-4.4 c 0,0 -9.594,-35.91 -15.625,-57.48 L 663.273,810.648 c 44.637,33.313 130.415,75.528 180.922,81.973 l 39.692,148.109 c 3.769,12.55 8.996,39.31 6.914,46.47 -3.211,2.88 -7.106,5.18 -10.266,6.58 l 4.32,19.62 c 23.723,-3.27 99.864,-8.75 146.015,-0.45 l 38.18,-4.4 c 0,0 -9.58,-35.91 -15.62,-57.48 L 986.836,814.379 931.445,611.398 c -1.211,-9.859 -11.371,-22.683 7.301,-34.218 l -3.734,-20.594 c -54.231,6.953 -118.407,8.055 -147.106,1.355 l -37.011,4.004 73.121,262.317 c -45.325,0 -123.094,-22.227 -174.946,-59.446" /><path
         id="path18"
         style="fill:#ed1c24;fill-opacity:1;fill-rule:nonzero;stroke:none"
         d="m 2900.51,901.332 c -52.4,-9.672 -73.52,-55.488 -82.9,-87.031 42.75,-0.352 93.11,-0.098 117.24,-0.262 9,17.723 18.24,46.199 8.77,66.348 -8.61,16.508 -21.34,22.886 -43.11,20.945 z m 181.07,-9.293 c 23.44,-35.453 15.36,-78.957 6.26,-112.809 l -278.53,0.434 c -13.7,-45.93 -25.73,-111.105 18.44,-153.098 43.26,-33.652 103.77,-18.41 140.44,0 22,10.481 42.11,22.403 61.09,38.684 7.71,-7.512 25.78,-29.301 25.78,-29.301 -71.08,-55.937 -165.56,-107.09 -278.38,-84.519 -55.4,7.246 -108.92,51.043 -123.83,92.871 -28.69,106.758 35.31,209.914 135.9,264.703 76.15,40.758 232.61,63.543 292.83,-16.965" /><path
         id="path20"
         style="fill:#ed1c24;fill-opacity:1;fill-rule:nonzero;stroke:none"
         d="m 1294.08,904.297 c -27.48,-9.293 -54.14,-33.902 -73.96,-74.215 -31.95,-65.012 -58.62,-152.187 -43.87,-220.676 9.38,-24.312 32.09,-29.781 49.28,-26.093 47.98,10.902 94.79,90.558 114.35,144.746 10.18,32.421 35.4,113.195 7.12,162.55 -12.05,14.09 -26.78,20.149 -52.92,13.688 z m 192.49,-26.57 c 52.57,-77.528 9.61,-208.524 -83.11,-276.2 -57.27,-41.953 -123.37,-59.402 -203.55,-56.797 -45.28,0.418 -95.15,16.415 -127.01,42.208 -41.3,30.964 -57.11,95.683 -50.97,123.515 16.1,110.383 115.32,210.078 250.5,228.723 73.72,10.168 170.77,-3.434 214.14,-61.449" /><path
         id="path22"
         style="fill:#ed1c24;fill-opacity:1;fill-rule:nonzero;stroke:none"
         d="m 1991.16,969.695 c 9.19,17.368 -22.5,37.435 -47.07,37.115 -94.8,2.84 -153.64,-95.794 -205.77,-162.119 l -2.38,-1.007 c 0,0 11.17,42.738 17.38,63.687 l -29.96,4.621 c -59.34,-12.429 -124.25,-0.754 -137.67,0.356 l -2.85,-17.188 c 20.15,-10.027 10.09,-24.316 7.75,-40.422 l -79.95,-292.793 37.46,-4.218 c 11.25,5.421 59.94,5.031 74.09,5.031 l 73.06,-5.988 2.19,19.027 c -14.16,8.836 -8.73,22.516 -6.1,36.668 0,0 42.54,171.281 60.79,198.262 40.85,90.66 160.32,138.062 137.42,55.488 1.58,-1.289 6.04,-5.301 6.04,-5.301 3.55,3.102 79.31,78.047 95.57,108.781" /><path
         id="path24"
         style="fill:#ed1c24;fill-opacity:1;fill-rule:nonzero;stroke:none"
         d="m 3313.22,811.848 58.86,211.642 c 6.05,21.58 15.97,58.49 15.97,58.49 l -39.08,3.67 c -62.41,-10.8 -108.16,-0.51 -145.81,1.73 l -3,-20.5 c 2.05,0 5.53,-3.39 9.74,-8.3 4.65,-5.42 -3.6,-33.01 -7.38,-45.55 l -125.7,-451.339 40.94,-3.535 c 28.69,6.699 88.78,5.774 143,-1.179 l 3.6,18.464 c -13.06,7.832 -11.12,20.598 -9.49,28.497 l 58.35,207.91" /><path
         id="path26"
         style="fill:#ed1c24;fill-opacity:1;fill-rule:nonzero;stroke:none"
         d="m 2029.97,908.188 c -26.19,-15.915 -124.93,-70.606 -136.27,-75.079 -0.91,-3.269 -1.94,-14.441 -1.94,-14.441 6.78,-2.512 11.21,-9.797 7.59,-21.137 -20.38,-74.812 -65.49,-235.34 -65.49,-235.34 l 37.7,-4.882 c 12.64,5.918 72.38,7.371 146.6,-0.567 l 3.25,19.414 -5.86,4.657 c -7.9,7.011 -4.24,17.335 -0.19,34.621 l 34.71,126.425 c 10.9,30.547 15.74,98.418 78.98,137.266 11.99,5.398 22.26,5.848 28.55,4.637 40.62,-4.707 20.51,-58.817 15.9,-79.364 l -60.43,-218.156 -6.6,-24.297 36.97,-4.539 c 34.04,8.535 98.13,4.18 147.04,-0.742 l 2.88,19.07 -3.6,3.418 c -8.14,5.481 -9.01,13.227 -1.08,36.575 0,0 37.04,140.253 51.17,186.867 8.97,32.644 48.06,92.543 100.24,80.457 14.8,-4.832 25.24,-21.321 15.95,-56.067 l -72.83,-264.851 38.03,-4.063 c 41.1,9.707 104,2.547 146.63,-1.015 l 2.81,19.004 c -2.76,2.207 -5.72,4.484 -7.68,7.07 -5.95,8.797 0.55,25.207 3.9,40.684 0,0 51.99,178.953 50.26,224.296 -0.76,20.012 -7.23,44.086 -28.51,66.442 -22.12,23.75 -53.7,27.851 -71.87,30.859 -83.18,9.672 -154.56,-43.117 -183.03,-80.609 0,0 -6.17,25.64 -14.49,37.293 -11.45,16.918 -34.53,32.347 -56.64,38.797 -90.23,24.175 -136.81,-25.133 -185.37,-75.895 l 11.13,34.926 c 9.22,31.547 -6.93,39.551 -58.41,8.266" /><path
         id="path28"
         style="fill:#00a650;fill-opacity:1;fill-rule:nonzero;stroke:none"
         d="m 2013.31,931.02 c 69.73,66.488 141.02,138.36 167.5,207.44 9.92,25.4 15.81,57.75 9.9,93.34 -9.27,56.06 -35.45,60.77 -51.28,58.34 -7.82,-1.19 -25.15,-10.41 -27.68,-30.37 -9.4,16.71 -38.11,29.18 -59.57,9.75 0,0 -18.62,-15.8 -8.8,-48.04 -23.37,7.87 -46.67,-8.38 -52.33,-29.4 -2.81,-21.98 6.94,-41.93 34.6,-48.6 33.12,-7.97 76.8,-50.71 35.34,-133.59 -10.47,-23.452 -49.08,-65.249 -53.39,-70.964 -3.16,-3.192 0.47,-12.625 5.71,-7.906" /><path
         id="path30"
         style="fill:#ed1c24;fill-opacity:1;fill-rule:nonzero;stroke:none"
         d="m 2385.59,415.492 17.57,61.543 c 1.73,5.899 5.53,18.879 3.36,21.426 -1.92,2.324 -3.51,3.926 -4.47,3.926 l 1.39,9.636 c 17.37,-1.043 37.6,-5.894 66.41,-0.8 l 18.01,-1.739 c 0,0 -4.57,-17.359 -7.34,-27.527 l -30.28,-112.227 -26.92,-97.839 c -0.74,-3.75 -1.66,-9.75 4.38,-13.422 l -1.64,-8.707 c -25.04,3.277 -51.88,3.707 -65.12,0.558 l -14.43,0.102 10.99,43.137 c -13.11,-28.399 -42.75,-46.469 -64.04,-46.469 -21.75,0.199 -37.13,5.73 -50.39,19.461 -13.15,13.597 -20.2,46.828 -17.7,64.07 7.73,54.051 42.64,99.676 107.58,108.836 16.45,2.305 45.32,-2.883 52.64,-23.965 z m -17.71,-68.031 c 14.2,51.633 -3.16,70.394 -22.45,66.926 -12.02,-3.328 -24.7,-11.024 -34.22,-30.77 -15.36,-31.836 -32.45,-70.617 -20.21,-98.105 6.48,-14.602 27.74,-10.981 37.2,-2.793 8.88,7.672 29.75,24.293 36.86,55.043 l 2.82,9.699" /><path
         id="path32"
         style="fill:#ed1c24;fill-opacity:1;fill-rule:nonzero;stroke:none"
         d="m 2485.86,290.359 c 20.11,-12.789 38.03,-18.507 66.4,-19.988 31.06,-1.633 50.59,6.75 55.19,24.379 7.03,27.012 -112.89,31.57 -96.96,85.5 6.37,21.57 20.59,36.355 44.41,46.734 23.91,10.805 48.87,12.793 72.33,12.793 23.45,0 46.09,-2.781 67.66,-7.605 l -10.64,-32.734 c -12.24,9.636 -32,15.964 -52.33,15.964 -9.01,0 -43.72,-1.16 -48.37,-20.359 -3,-12.559 21.91,-19.113 31.75,-22.363 15.21,-5.071 31.33,-10.41 43.25,-18.801 15.78,-10.777 27.33,-24.777 21.29,-45.141 -15.83,-53.527 -80.86,-64.726 -128.67,-64.726 -25.23,0 -51.28,5.988 -74.68,10.777 l 9.37,35.57" /><path
         id="path34"
         style="fill:#ed1c24;fill-opacity:1;fill-rule:nonzero;stroke:none"
         d="m 2078.22,422.355 c -13.17,-4.539 -25.97,-16.597 -35.49,-36.335 -15.34,-31.829 -28.17,-74.54 -21.09,-108.071 4.54,-11.89 15.42,-14.578 23.67,-12.789 23.05,5.34 45.51,44.352 54.9,70.899 4.9,15.882 17.02,55.429 3.46,79.589 -5.79,6.922 -12.88,9.864 -25.45,6.707 z m 92.43,-12.996 c 25.25,-37.968 4.61,-102.129 -39.9,-135.269 -27.5,-20.551 -59.23,-29.078 -97.74,-27.801 -21.74,0.199 -45.67,8.02 -60.99,20.641 -19.83,15.179 -27.41,46.871 -24.44,60.5 7.71,54.047 55.37,102.867 120.27,112.027 35.4,4.949 81.98,-1.699 102.8,-30.098" /><path
         id="path36"
         style="fill:#ed1c24;fill-opacity:1;fill-rule:nonzero;stroke:none"
         d="m 1647.17,413.004 c 0,0 -47.67,-0.356 -92.22,0.203 l 17.78,63.738 c 0,0 72.91,-0.152 85.62,-0.152 12.7,0 25.24,-11.926 26.08,-19.105 h 11.18 l 12.91,51.554 c 0,0 -175.39,-0.613 -212.52,1.082 l -2,-9.226 c 1.46,-0.657 3.26,-1.731 4.73,-3.106 0.97,-3.379 -1.44,-15.969 -3.18,-21.855 l -61.37,-225.336 17.08,-1.871 c 13.24,3.152 42.85,2.64 67.88,-0.66 l 1.72,9.71 c -8.62,5.43 -3.93,11.442 -3.37,16.11 l 29.53,106.492 49.98,-0.039 c 12.7,0 25.25,-11.953 26.1,-19.133 h 11.17 l 12.9,51.594" /><path
         id="path38"
         style="fill:#ed1c24;fill-opacity:1;fill-rule:nonzero;stroke:none"
         d="m 1802.3,422.355 c -13.2,-4.539 -26,-16.597 -35.52,-36.335 -15.33,-31.829 -28.15,-74.54 -21.06,-108.071 4.5,-11.89 15.41,-14.578 23.66,-12.789 23.04,5.34 45.51,44.352 54.91,70.899 4.88,15.882 16.98,55.429 3.42,79.589 -5.79,6.922 -12.86,9.864 -25.41,6.707 z m 92.42,-12.996 c 25.22,-37.968 4.6,-102.129 -39.91,-135.269 -27.51,-20.551 -59.23,-29.078 -97.74,-27.801 -21.74,0.199 -45.67,8.02 -60.97,20.641 -19.84,15.179 -27.42,46.871 -24.48,60.5 7.74,54.047 55.37,102.867 120.28,112.027 35.4,4.949 81.99,-1.699 102.82,-30.098" /><path
         id="path40"
         style="fill:#00a650;fill-opacity:1;fill-rule:nonzero;stroke:none"
         d="M 1046.13,82.6094 H 3079.09 C 3450.84,82.6797 3754.2,334.57 3754.2,694.867 v 0 c -0.07,312.803 -242.15,590.363 -628.23,591.333 h -666.71 c 19.76,-2.68 31.66,-35.77 20.08,-45.55 h 603.77 c 393.66,0 588.86,-233.89 588.86,-543.017 v 0 c 0,-285.852 -246.24,-500.164 -597.5,-500.164 H 1289.45 c -83.29,-50.578 -111.7,-73.149 -243.33,-107.9495 -4.92,-0.3203 -4.3,-6.9101 0.01,-6.9101" /><path
         id="path42"
         style="fill:#00a650;fill-opacity:1;fill-rule:nonzero;stroke:none"
         d="m 987.59,203.301 c -82.027,-9.012 -95.695,-7.332 -246.121,-7.242 -293.34,0.203 -577.992,186.257 -577.992,496.914 v 2.812 c 0,367.795 265.214,544.865 574.515,544.865 H 1999.66 c -6.35,20.82 6.4,38.61 20.13,45.55 H 724.918 C 333.605,1286.2 79.8672,1028.71 79.8672,695.094 v 0 c 0,-410.004 346.3008,-613.0432 677.0508,-613.0432 130.859,0 226.406,25.2502 299.032,49.2692 122.14,40.43 240.32,128 348.75,224.711 8.97,8.778 2.42,15.496 -7.54,7.867 C 1270.23,271.891 1104.09,216.102 987.59,203.301" /><path
         id="path44"
         style="fill:#00a650;fill-opacity:1;fill-rule:nonzero;stroke:none"
         d="m 2302.51,1350.01 c 0,0 -31.83,0.5 -34.71,-35.92 0,0 -31.13,27.78 -56.16,2.23 -6.92,-8.8 -5.38,-19.03 -2.08,-28.21 0,0 55.56,-89.85 -12.65,-192.71 -0.51,-0.77 -1.05,-1.57 -1.59,-2.38 -8.28,-11.79 -9.3,-16.95 7.36,-4.42 12.3,9.26 24.08,18.91 24.08,18.91 130.32,104.79 191.73,120.75 191.73,120.75 6.59,2.24 14.01,4.19 17.55,11.45 4.67,9.55 -3.13,19.53 -9.79,24.1 0,0 -10.88,7.33 -28.92,5.74 0,0 23.44,28.59 -2.17,51.71 0,0 -24.58,17.38 -51.28,-3.36 0,0 -6.24,33.15 -41.37,32.11" /><path
         id="path46"
         style="fill:#00a650;fill-opacity:1;fill-rule:nonzero;stroke:none"
         d="m 2164.86,1010.81 c 12.7,7.67 24.98,14.84 35.47,20.3 98.58,48.65 138.1,9.47 138.1,9.47 33.67,-21.51 25.28,-55.978 25.28,-55.978 29.57,-8.946 50.82,7.078 57.37,20.498 8.19,16.77 5.03,32.22 5.03,32.22 47.37,-5.23 56.13,32.97 56.13,32.97 8.35,38.35 -28,50.83 -28,50.83 47.35,23.96 30.82,63.38 1.39,66.77 -29.43,3.41 -56.78,-9.78 -81.58,-22.46 -37.15,-18.98 -140.98,-91.9 -212.37,-150.02 -8.24,-7.08 -6.92,-10.48 3.18,-4.6" /></g></g></svg>