<svg width="391" height="56" xmlns="http://www.w3.org/2000/svg" xmlns:xlink="http://www.w3.org/1999/xlink" overflow="hidden"><defs><clipPath id="clip0"><rect x="96" y="125" width="391" height="56"/></clipPath></defs><g clip-path="url(#clip0)" transform="translate(-96 -125)"><path d="M97 125.935 106.674 125.935 106.674 169.12 132.069 169.12 132.069 178.872 97 178.872 97 169.12 97 169.12ZM139.091 125.935 149.877 125.935 174.16 159.717 174.16 159.717 174.16 178.871 164.487 178.871 164.487 162.487ZM295.972 125.75 307 125.75 285.931 149.663 307 180 296.914 180 280.404 155.937 274.583 162.545 274.583 179.833 264.909 179.833 264.909 160.885 264.909 160.885ZM198.813 125 233.248 157.258 233.248 125.936 242.921 125.936 242.921 167.618 242.921 167.618 242.921 178.872 208.487 146.614 208.487 178.871 198.813 178.871 198.813 137.551Z" fill-rule="evenodd"/><path d="M398.926 126C404.502 126 409.683 127.7 413.98 130.611L415.018 131.47 409.344 137.522 409.337 137.516C406.365 135.502 402.782 134.327 398.926 134.327 388.642 134.327 380.305 142.687 380.305 153 380.305 163.313 388.642 171.673 398.926 171.673 404.068 171.673 408.723 169.583 412.092 166.204L413.269 164.774 419.714 169.966 417.965 172.092C413.092 176.978 406.361 180 398.926 180 384.055 180 372 167.912 372 153 372 138.088 384.055 126 398.926 126ZM459.074 126C473.945 126 486 138.088 486 153 486 167.912 473.945 180 459.074 180 446.063 180 435.207 170.745 432.696 158.441L432.359 156.228 440.778 156.228 440.832 156.763C442.568 165.272 450.076 171.673 459.074 171.673 469.358 171.673 477.695 163.313 477.695 153 477.695 142.687 469.358 134.327 459.074 134.327 455.218 134.327 451.635 135.502 448.663 137.516L447.706 138.308 440.948 133.153 444.02 130.611C448.317 127.7 453.498 126 459.074 126Z" fill-rule="evenodd"/><path d="M335.528 140.956C340.377 140.956 344.308 144.887 344.308 149.736 344.308 151.554 343.755 153.243 342.808 154.645L337.735 159.556 344.521 167.149C345.106 166.665 345.69 166.18 346.275 165.696L352.753 165.696C350.927 167.208 349.102 168.72 347.277 170.232L355.045 178.923 349.757 178.923 344.238 172.748 338.454 177.528C337.033 178.489 335.32 179.049 333.475 179.049 328.557 179.049 324.57 175.062 324.57 170.144 324.57 168.3 325.131 166.586 326.091 165.165L326.746 164.37 332.143 159.216 328.247 154.645C327.301 153.243 326.748 151.554 326.748 149.736 326.748 144.887 330.679 140.956 335.528 140.956ZM335.528 144.808C332.807 144.808 330.6 147.014 330.6 149.736 330.6 150.416 330.738 151.064 330.988 151.654 332.251 153.654 334.013 155.322 335.525 157.157 337.039 155.322 339.3 153.405 340.068 151.654 340.318 151.064 340.455 150.416 340.455 149.736 340.455 147.014 338.249 144.808 335.528 144.808ZM334.558 162.888 331.21 165.754C330.43 166.569 329.484 167.052 328.87 168.199 328.617 168.797 328.477 169.454 328.477 170.144 328.477 172.904 330.715 175.142 333.475 175.142L335.32 174.769C337.133 173.223 338.946 171.677 340.759 170.13L334.558 162.888Z" stroke="#000000" stroke-width="1.33333" stroke-miterlimit="8" fill-rule="evenodd"/></g></svg>