<?xml version="1.0" encoding="UTF-8" standalone="no"?>
<!-- Created with Inkscape (http://www.inkscape.org/) -->

<svg
   version="1.1"
   id="svg1"
   width="2724.9443"
   height="2147.1797"
   viewBox="0 0 2724.9443 2147.1797"
   sodipodi:docname="Yili (2018).svg"
   inkscape:version="1.4 (86a8ad7, 2024-10-11)"
   xmlns:inkscape="http://www.inkscape.org/namespaces/inkscape"
   xmlns:sodipodi="http://sodipodi.sourceforge.net/DTD/sodipodi-0.dtd"
   xmlns:xlink="http://www.w3.org/1999/xlink"
   xmlns="http://www.w3.org/2000/svg"
   xmlns:svg="http://www.w3.org/2000/svg">
  <defs
     id="defs1">
    <clipPath
       clipPathUnits="userSpaceOnUse"
       id="clipPath10">
      <path
         d="M 0,0 H 1190.551 V 807.874 H 0 Z"
         transform="translate(-307.02551,-465.45321)"
         id="path10" />
    </clipPath>
    <clipPath
       clipPathUnits="userSpaceOnUse"
       id="clipPath12">
      <path
         d="M 0,0 H 1190.551 V 807.874 H 0 Z"
         transform="translate(-288.18471,-471.17751)"
         id="path12" />
    </clipPath>
    <clipPath
       clipPathUnits="userSpaceOnUse"
       id="clipPath14">
      <path
         d="M 0,0 H 1190.551 V 807.874 H 0 Z"
         transform="translate(-294.83461,-456.14711)"
         id="path14" />
    </clipPath>
    <clipPath
       clipPathUnits="userSpaceOnUse"
       id="clipPath16">
      <path
         d="M 0,0 H 1190.551 V 807.874 H 0 Z"
         transform="translate(-301.68971,-459.80791)"
         id="path16" />
    </clipPath>
    <clipPath
       clipPathUnits="userSpaceOnUse"
       id="clipPath18">
      <path
         d="M 0,0 H 1190.551 V 807.874 H 0 Z"
         transform="translate(-288.77211,-453.56541)"
         id="path18" />
    </clipPath>
    <clipPath
       clipPathUnits="userSpaceOnUse"
       id="clipPath20">
      <path
         d="M 0,0 H 1190.551 V 807.874 H 0 Z"
         transform="translate(-294.379,-453.56621)"
         id="path20" />
    </clipPath>
    <clipPath
       clipPathUnits="userSpaceOnUse"
       id="clipPath22">
      <path
         d="M 0,0 H 1190.551 V 807.874 H 0 Z"
         transform="translate(-297.1198,-450.09471)"
         id="path22" />
    </clipPath>
    <clipPath
       clipPathUnits="userSpaceOnUse"
       id="clipPath24">
      <path
         d="M 0,0 H 1190.551 V 807.874 H 0 Z"
         transform="translate(-272.62131,-454.86301)"
         id="path24" />
    </clipPath>
    <clipPath
       clipPathUnits="userSpaceOnUse"
       id="clipPath26">
      <path
         d="M 0,0 H 1190.551 V 807.874 H 0 Z"
         transform="translate(-284.77131,-456.14481)"
         id="path26" />
    </clipPath>
    <clipPath
       clipPathUnits="userSpaceOnUse"
       id="clipPath28">
      <path
         d="M 0,0 H 1190.551 V 807.874 H 0 Z"
         transform="translate(-265.35061,-452.96791)"
         id="path28" />
    </clipPath>
    <clipPath
       clipPathUnits="userSpaceOnUse"
       id="clipPath30">
      <path
         d="M 0,0 H 1190.551 V 807.874 H 0 Z"
         transform="translate(-288.18471,-471.17751)"
         id="path30" />
    </clipPath>
    <clipPath
       clipPathUnits="userSpaceOnUse"
       id="clipPath32">
      <path
         d="M 0,0 H 1190.551 V 807.874 H 0 Z"
         transform="translate(-306.03761,-438.99531)"
         id="path32" />
    </clipPath>
    <clipPath
       clipPathUnits="userSpaceOnUse"
       id="clipPath38">
      <path
         d="M 0,0 H 1190.551 V 807.874 H 0 Z"
         transform="translate(-468.77331,-219.0854)"
         id="path38" />
    </clipPath>
    <clipPath
       clipPathUnits="userSpaceOnUse"
       id="clipPath40">
      <path
         d="M 0,0 H 1190.551 V 807.874 H 0 Z"
         transform="translate(-476.45581,-206.85721)"
         id="path40" />
    </clipPath>
    <clipPath
       clipPathUnits="userSpaceOnUse"
       id="clipPath42">
      <path
         d="M 0,0 H 1190.551 V 807.874 H 0 Z"
         transform="translate(-185.62701,-219.08591)"
         id="path42" />
    </clipPath>
    <clipPath
       clipPathUnits="userSpaceOnUse"
       id="clipPath44">
      <path
         d="M 0,0 H 1190.551 V 807.874 H 0 Z"
         transform="translate(-277.70041,-219.08591)"
         id="path44" />
    </clipPath>
    <clipPath
       clipPathUnits="userSpaceOnUse"
       id="clipPath46">
      <path
         d="M 0,0 H 1190.551 V 807.874 H 0 Z"
         transform="translate(-374.76821,-219.0854)"
         id="path46" />
    </clipPath>
    <clipPath
       clipPathUnits="userSpaceOnUse"
       id="clipPath48">
      <path
         d="M 0,0 H 1190.551 V 807.874 H 0 Z"
         transform="translate(-381.73961,-205.3481)"
         id="path48" />
    </clipPath>
    <clipPath
       clipPathUnits="userSpaceOnUse"
       id="clipPath55">
      <path
         d="M 0,0 H 1190.551 V 807.874 H 0 Z"
         transform="translate(-92.259902,-219.08591)"
         id="path55" />
    </clipPath>
    <clipPath
       clipPathUnits="userSpaceOnUse"
       id="clipPath57">
      <path
         d="M 0,0 H 1190.551 V 807.874 H 0 Z"
         transform="translate(-99.2974,-208.88)"
         id="path57" />
    </clipPath>
    <clipPath
       clipPathUnits="userSpaceOnUse"
       id="clipPath59">
      <path
         d="M 0,0 H 1190.551 V 807.874 H 0 Z"
         transform="translate(-100.33,-210.6584)"
         id="path59" />
    </clipPath>
    <clipPath
       clipPathUnits="userSpaceOnUse"
       id="clipPath61">
      <path
         d="M 0,0 H 1190.551 V 807.874 H 0 Z"
         transform="translate(-104.6902,-205.95361)"
         id="path61" />
    </clipPath>
    <clipPath
       clipPathUnits="userSpaceOnUse"
       id="clipPath63">
      <path
         d="M 0,0 H 1190.551 V 807.874 H 0 Z"
         transform="translate(-92.259902,-218.687)"
         id="path63" />
    </clipPath>
    <clipPath
       clipPathUnits="userSpaceOnUse"
       id="clipPath66">
      <path
         d="M 0,0 H 1190.551 V 807.874 H 0 Z"
         transform="translate(-282.81591,-205.93991)"
         id="path66" />
    </clipPath>
    <clipPath
       clipPathUnits="userSpaceOnUse"
       id="clipPath68">
      <path
         d="M 0,0 H 1190.551 V 807.874 H 0 Z"
         transform="translate(-192.6802,-204.5762)"
         id="path68" />
    </clipPath>
    <clipPath
       clipPathUnits="userSpaceOnUse"
       id="clipPath82">
      <path
         d="m 831.201,160.446 h 74.693 v -25.504 h -74.693 z"
         transform="translate(-840.20095,-153.44581)"
         id="path82" />
    </clipPath>
    <clipPath
       clipPathUnits="userSpaceOnUse"
       id="clipPath84">
      <path
         d="M 0,0 H 1190.551 V 807.874 H 0 Z"
         transform="matrix(1.3333333,0,0,-1.3333333,0,1077.1653)"
         id="path84" />
    </clipPath>
    <clipPath
       clipPathUnits="userSpaceOnUse"
       id="clipPath85">
      <path
         d="M 831.201,268.913 H 974.889 V 243.409 H 831.201 Z"
         transform="translate(-840.20095,-261.9131)"
         id="path85" />
    </clipPath>
    <clipPath
       clipPathUnits="userSpaceOnUse"
       id="clipPath87">
      <path
         d="M 0,0 H 1190.551 V 807.874 H 0 Z"
         transform="matrix(1.3333333,0,0,-1.3333333,0,1077.1653)"
         id="path87" />
    </clipPath>
    <clipPath
       clipPathUnits="userSpaceOnUse"
       id="clipPath88">
      <path
         d="m 900.196,160.446 h 74.693 v -25.504 h -74.693 z"
         transform="translate(-909.19585,-153.44581)"
         id="path88" />
    </clipPath>
    <clipPath
       clipPathUnits="userSpaceOnUse"
       id="clipPath90">
      <path
         d="M 0,0 H 1190.551 V 807.874 H 0 Z"
         transform="matrix(1.3333333,0,0,-1.3333333,0,1077.1653)"
         id="path90" />
    </clipPath>
    <clipPath
       clipPathUnits="userSpaceOnUse"
       id="clipPath94">
      <path
         d="m 987.832,307.417 h 35.008 V 204.905 h -35.008 z"
         transform="translate(0,-2.5000001e-5)"
         id="path94" />
    </clipPath>
    <clipPath
       clipPathUnits="userSpaceOnUse"
       id="clipPath96">
      <path
         d="M 0,0 H 1190.551 V 807.874 H 0 Z"
         transform="matrix(1.3333333,0,0,-1.3333333,0,1077.1653)"
         id="path96" />
    </clipPath>
    <clipPath
       clipPathUnits="userSpaceOnUse"
       id="clipPath97">
      <path
         d="m 987.832,380.292 h 35.008 v -70.409 h -35.008 z"
         transform="translate(0,-2.5000001e-5)"
         id="path97" />
    </clipPath>
    <clipPath
       clipPathUnits="userSpaceOnUse"
       id="clipPath99">
      <path
         d="M 0,0 H 1190.551 V 807.874 H 0 Z"
         transform="matrix(1.3333333,0,0,-1.3333333,0,1077.1653)"
         id="path99" />
    </clipPath>
    <clipPath
       clipPathUnits="userSpaceOnUse"
       id="clipPath100">
      <path
         d="m 987.832,195.19 h 35.008 v -94.008 h -35.008 z"
         transform="translate(0,-2.5000001e-5)"
         id="path100" />
    </clipPath>
    <clipPath
       clipPathUnits="userSpaceOnUse"
       id="clipPath102">
      <path
         d="M 0,0 H 1190.551 V 807.874 H 0 Z"
         transform="matrix(1.3333333,0,0,-1.3333333,0,1077.1653)"
         id="path102" />
    </clipPath>
    <clipPath
       clipPathUnits="userSpaceOnUse"
       id="clipPath103">
      <path
         d="m 987.832,463.788 h 35.008 v -81.03 h -35.008 z"
         transform="translate(0,-2.5000001e-5)"
         id="path103" />
    </clipPath>
    <clipPath
       clipPathUnits="userSpaceOnUse"
       id="clipPath105">
      <path
         d="M 0,0 H 1190.551 V 807.874 H 0 Z"
         transform="matrix(1.3333333,0,0,-1.3333333,0,1077.1653)"
         id="path105" />
    </clipPath>
    <clipPath
       clipPathUnits="userSpaceOnUse"
       id="clipPath126">
      <path
         d="m 932.881,382.292 h 42.512 v -80.409 h -42.512 z"
         transform="translate(-939.88135,-310.88281)"
         id="path126" />
    </clipPath>
    <clipPath
       clipPathUnits="userSpaceOnUse"
       id="clipPath128">
      <path
         d="M 0,0 H 1190.551 V 807.874 H 0 Z"
         transform="matrix(1.3333333,0,0,-1.3333333,0,1077.1653)"
         id="path128" />
    </clipPath>
  </defs>
  <sodipodi:namedview
     id="namedview1"
     pagecolor="#ffffff"
     bordercolor="#000000"
     borderopacity="0.25"
     inkscape:showpageshadow="2"
     inkscape:pageopacity="0.0"
     inkscape:pagecheckerboard="0"
     inkscape:deskcolor="#d1d1d1"
     inkscape:zoom="0.25754714"
     inkscape:cx="1364.7987"
     inkscape:cy="1073.5899"
     inkscape:window-width="1366"
     inkscape:window-height="705"
     inkscape:window-x="-8"
     inkscape:window-y="-8"
     inkscape:window-maximized="1"
     inkscape:current-layer="g1" />
  <g
     id="g1"
     inkscape:groupmode="layer"
     inkscape:label="6"
     transform="matrix(41.198725,0,0,41.198725,-14326.834,-18431.595)"
     style="stroke-width:0.0242726">
    <path
       id="path9"
       d="m 0,0 c -7.352,8.639 -20.277,6.697 -20.277,6.697 -11.912,-1.235 -17.986,-8.861 -17.986,-8.861 -12.924,-10.169 -6.204,-20.795 -6.204,-20.795 5.704,-9.817 18.365,-9.239 18.365,-9.239 14.452,-0.052 21.551,9.042 21.551,9.042 3.779,2.607 5.92,6.668 5.92,6.668 C 6.617,-6.697 0,0 0,0"
       style="fill:#ffffff;fill-opacity:1;fill-rule:nonzero;stroke:none;stroke-width:0.0242726"
       transform="matrix(1.3333333,0,0,-1.3333333,409.36733,456.56107)"
       clip-path="url(#clipPath10)" />
    <path
       id="path11"
       d="m 0,0 c -7.628,-0.492 -14.497,-3.897 -18.668,-8.66 v 10e-4 l -0.034,-0.039 c -0.002,-0.002 -0.004,-0.004 -0.005,-0.006 v 0 l -0.002,-0.003 c 0,0.001 0.001,0.002 0.002,0.003 -4.423,-3.339 -7.313,-7.858 -7.559,-12.683 -0.472,-9.268 8.986,-16.163 21.124,-15.368 7.652,0.487 14.543,3.913 18.711,8.7 -0.001,0 -0.001,-0.001 -0.002,-0.001 l 0.002,0.001 c 10e-4,0.001 10e-4,0.001 0.002,0.002 l 0.036,0.027 v 0.001 c 4.4,3.334 7.275,7.842 7.52,12.651 C 21.599,-6.103 12.137,0.777 0,0"
       style="fill:#ffffff;fill-opacity:1;fill-rule:nonzero;stroke:none;stroke-width:0.0242726"
       transform="matrix(1.3333333,0,0,-1.3333333,384.24627,448.92867)"
       clip-path="url(#clipPath12)" />
    <path
       id="path13"
       d="m 0,0 h -2.314 c -0.148,0 -0.261,0.139 -0.235,0.289 l 0.243,1.363 c 0.02,0.117 0.119,0.202 0.235,0.202 H 0.145 C 0.26,1.854 0.36,1.94 0.38,2.058 L 0.554,3.094 C 0.579,3.244 0.467,3.382 0.318,3.382 h -6.952 c -0.116,0 -0.215,-0.086 -0.235,-0.204 L -7.044,2.142 C -7.068,1.991 -6.956,1.854 -6.808,1.854 h 2.055 c 0.149,0 0.262,-0.139 0.235,-0.289 L -4.758,0.202 C -4.779,0.085 -4.878,0 -4.994,0 l -2.56,-0.005 c -0.116,0 -0.215,-0.087 -0.235,-0.204 l -0.18,-1.032 c -0.025,-0.15 0.087,-0.287 0.236,-0.287 h 2.389 c 0.148,0 0.261,-0.138 0.236,-0.288 0,0 -1.145,-6.599 -1.385,-8.024 -0.026,-0.15 0.087,-0.287 0.236,-0.287 h 1.718 c 0.116,0 0.215,0.086 0.235,0.204 l 1.417,8.191 c 0.02,0.118 0.12,0.204 0.236,0.204 h 2.477 c 0.116,0 0.216,0.085 0.235,0.204 l 0.174,1.036 C 0.261,-0.138 0.148,0 0,0"
       style="fill:#e72d30;fill-opacity:1;fill-rule:nonzero;stroke:none;stroke-width:0.0242726"
       transform="matrix(1.3333333,0,0,-1.3333333,393.1128,468.9692)"
       clip-path="url(#clipPath14)" />
    <path
       id="path15"
       d="m 0,0 h -1.579 c -0.116,0 -0.215,-0.087 -0.235,-0.204 -0.246,-1.453 -1.894,-10.955 -1.941,-11.176 -0.123,-0.588 -0.591,-1.665 -1.067,-2.23 -0.142,-0.167 -0.009,-0.424 0.205,-0.404 1.506,0.139 2.783,1.673 3.01,3.003 0.388,2.267 1.606,9.307 1.843,10.724 C 0.261,-0.137 0.148,0 0,0"
       style="fill:#e72d30;fill-opacity:1;fill-rule:nonzero;stroke:none;stroke-width:0.0242726"
       transform="matrix(1.3333333,0,0,-1.3333333,402.25293,464.08813)"
       clip-path="url(#clipPath16)" />
    <path
       id="path17"
       d="m 0,0 c 0.025,0.15 -0.088,0.286 -0.236,0.286 h -1.237 c -0.117,0 -0.217,-0.087 -0.236,-0.206 -0.074,-0.46 -0.344,-2.056 -0.437,-2.483 -0.413,-1.915 -0.755,-2.623 -1.31,-3.267 -0.156,-0.181 0.008,-0.48 0.296,-0.401 2.222,0.608 2.533,2.518 2.729,3.668 0.07,0.407 0.35,1.906 0.431,2.403"
       style="fill:#e72d30;fill-opacity:1;fill-rule:nonzero;stroke:none;stroke-width:0.0242726"
       transform="matrix(1.3333333,0,0,-1.3333333,385.02947,472.41147)"
       clip-path="url(#clipPath18)" />
    <path
       id="path19"
       d="m 0,0 c 0.025,0.15 -0.087,0.286 -0.236,0.286 h -1.239 c -0.117,0 -0.217,-0.086 -0.236,-0.205 -0.075,-0.459 -0.33,-2.024 -0.403,-2.454 -0.2,-1.17 -0.455,-3.094 1.615,-3.691 0.264,-0.076 0.428,0.155 0.331,0.345 -0.653,1.281 -0.284,3.013 -0.227,3.346 C -0.326,-1.967 -0.082,-0.497 0,0"
       style="fill:#e72d30;fill-opacity:1;fill-rule:nonzero;stroke:none;stroke-width:0.0242726"
       transform="matrix(1.3333333,0,0,-1.3333333,392.50533,472.4104)"
       clip-path="url(#clipPath20)" />
    <path
       id="path21"
       d="M 0,0 1.226,7.07 C 1.251,7.221 1.139,7.358 0.99,7.358 h -1.57 c -0.116,0 -0.215,-0.085 -0.236,-0.202 L -2.041,0.085 c -0.026,-0.151 0.087,-0.289 0.236,-0.289 h 1.569 C -0.119,-0.204 -0.02,-0.118 0,0"
       style="fill:#e72d30;fill-opacity:1;fill-rule:nonzero;stroke:none;stroke-width:0.0242726"
       transform="matrix(1.3333333,0,0,-1.3333333,396.15973,477.03907)"
       clip-path="url(#clipPath22)" />
    <path
       id="path23"
       d="m 0,0 h -0.635 c 1.307,1.777 2.09,3.715 2.352,4.57 0.05,0.162 -0.06,0.328 -0.225,0.328 h -1.721 c -0.107,0 -0.199,-0.074 -0.229,-0.179 -0.899,-3.226 -2.746,-6.14 -3.765,-7.295 -0.177,-0.202 0.047,-0.505 0.284,-0.386 0.635,0.32 1.216,0.738 1.745,1.217 l -1.159,-6.808 c -0.025,-0.15 0.087,-0.288 0.235,-0.288 h 1.68 c 0.116,0 0.215,0.086 0.236,0.203 l 1.437,8.349 C 0.261,-0.138 0.149,0 0,0"
       style="fill:#e72d30;fill-opacity:1;fill-rule:nonzero;stroke:none;stroke-width:0.0242726"
       transform="matrix(1.3333333,0,0,-1.3333333,363.49507,470.68133)"
       clip-path="url(#clipPath24)" />
    <path
       id="path25"
       d="m 0,0 h -0.524 c -0.149,0 -0.261,0.139 -0.235,0.289 l 0.336,1.94 c 0.105,0.603 -0.346,1.155 -0.942,1.155 h -8.346 c -0.117,0 -0.216,-0.085 -0.236,-0.203 l -0.174,-1.04 c -0.026,-0.15 0.087,-0.287 0.235,-0.287 H -7.2 c 0.148,0 0.26,-0.137 0.236,-0.288 L -7.191,0.205 C -7.21,0.087 -7.31,0 -7.427,0 h -2.86 c -0.117,0 -0.216,-0.086 -0.236,-0.204 l -0.174,-1.037 c -0.026,-0.15 0.087,-0.287 0.235,-0.287 h 2.681 c 0.148,0 0.261,-0.139 0.235,-0.29 l -0.25,-1.479 C -7.816,-3.414 -7.915,-3.5 -8.031,-3.5 l -2.846,0.009 c -0.116,0 -0.215,-0.087 -0.235,-0.204 l -0.175,-1.037 c -0.025,-0.151 0.088,-0.288 0.236,-0.288 l 2.695,-0.008 c 0.15,0 0.263,-0.139 0.235,-0.291 -0.157,-0.845 -0.788,-3.272 -2.334,-4.597 -0.186,-0.16 -0.059,-0.471 0.18,-0.437 3.104,0.45 3.939,3.489 4.228,5.124 0.021,0.117 0.119,0.201 0.235,0.201 h 2.566 c 0.939,0 1.647,0.648 1.858,1.651 l 0.283,1.642 c 0.019,0.119 0.119,0.207 0.237,0.207 h 0.694 c 0.116,0 0.215,0.085 0.235,0.204 l 0.175,1.036 C 0.261,-0.138 0.148,0 0,0 M -3.392,-3.099 C -3.435,-3.331 -3.632,-3.5 -3.862,-3.5 h -1.587 c -0.149,0 -0.261,0.138 -0.236,0.288 l 0.244,1.479 c 0.02,0.118 0.119,0.205 0.236,0.205 h 1.8 c 0.15,0 0.263,-0.14 0.235,-0.292 z m 0.565,3.3 C -2.848,0.085 -2.947,0 -3.062,0 h -1.799 c -0.148,0 -0.26,0.137 -0.236,0.286 l 0.239,1.362 c 0.019,0.119 0.118,0.206 0.235,0.206 0.596,-0.001 1.374,-0.002 1.8,-0.003 0.149,0 0.26,-0.139 0.234,-0.29 z"
       style="fill:#e72d30;fill-opacity:1;fill-rule:nonzero;stroke:none;stroke-width:0.0242726"
       transform="matrix(1.3333333,0,0,-1.3333333,379.69507,468.97227)"
       clip-path="url(#clipPath26)" />
    <path
       id="path27"
       d="M 0,0 C 0.174,3.427 1.684,6.7 4.127,9.505 -0.295,6.167 -3.186,1.647 -3.431,-3.178 c -0.473,-9.267 8.985,-16.162 21.123,-15.368 7.652,0.488 14.543,3.913 18.711,8.701 -4.078,-3.078 -9.457,-5.152 -15.28,-5.523 C 8.986,-16.163 -0.472,-9.268 0,0"
       style="fill:#5cb531;fill-opacity:1;fill-rule:nonzero;stroke:none;stroke-width:0.0242726"
       transform="matrix(1.3333333,0,0,-1.3333333,353.8008,473.20813)"
       clip-path="url(#clipPath28)" />
    <path
       id="path29"
       d="m 0,0 c -7.652,-0.493 -14.54,-3.917 -18.707,-8.704 4.076,3.077 9.454,5.152 15.276,5.526 12.136,0.777 21.599,-6.103 21.127,-15.373 -0.175,-3.426 -1.685,-6.698 -4.127,-9.504 4.422,3.338 7.312,7.858 7.558,12.681 C 21.599,-6.103 12.137,0.777 0,0"
       style="fill:#0086cd;fill-opacity:1;fill-rule:nonzero;stroke:none;stroke-width:0.0242726"
       transform="matrix(1.3333333,0,0,-1.3333333,384.24627,448.92867)"
       clip-path="url(#clipPath30)" />
  </g>
</svg>
